<?xml version="1.0" encoding="utf-8"?>
<!-- Generator: Adobe Illustrator 23.0.3, SVG Export Plug-In . SVG Version: 6.00 Build 0)  -->
<svg version="1.1" id="Layer_1" xmlns="http://www.w3.org/2000/svg" xmlns:xlink="http://www.w3.org/1999/xlink" x="0px" y="0px"
	 viewBox="0 0 467.1 94.3" style="enable-background:new 0 0 467.1 94.3;" xml:space="preserve">
<style type="text/css">
	.st0{font-family:'Raleway-SemiBold';}
	.st1{font-size:72px;}
	.st2{letter-spacing:-2;}
	.st3{letter-spacing:-1;}
	.st4{fill:none;stroke:#00F000;stroke-width:2.5;stroke-miterlimit:10;}
</style>
<title>title</title>
<text transform="matrix(1 0 0 1 0 61.56)" class="st0 st1 st2">L</text>
<text transform="matrix(1 0 0 1 40.1 61.56)" class="st0 st1">  ger</text>
<text transform="matrix(1 0 0 1 190.73 61.56)" class="st0 st1 st3">L</text>
<text transform="matrix(1 0 0 1 231.26 61.56)" class="st0 st1">ogge</text>
<text transform="matrix(1 0 0 1 408.02 61.56)" class="st0 st1 st3">r</text>
<path class="st4" d="M61.6,61.1H48.8c-2.5,0-4.6-2-4.6-4.6v-26h22v26C66.2,59.1,64.2,61.1,61.6,61.1z"/>
<path class="st4" d="M71.2,53h-5V35.8h5c1.4,0,2.6,1.2,2.6,2.6v12C73.8,51.8,72.6,53,71.2,53z"/>
<path class="st4" d="M64.3,22.2c-2.4-0.3-4.5,1.3-4.9,3.6c-0.6-0.6-1.4-1-2.4-1c-0.7,0-1.3,0.2-1.8,0.5c-0.7-1.9-2.7-3.3-5.1-3.3
	c-2.9,0-5.3,2.1-5.3,4.8c0,0.3,0,0.5,0.1,0.8c-0.5-0.1-1,0-1.5,0.3c-0.6,0.4-1.1,1.1-1.1,1.8c0,1.5,1.3,2.5,2.7,2.2
	c0.8-0.2,1.1-0.3,1.3-1c0,0,0.4-0.2,0.4-0.4l-0.1,3.4c0,1.5,1.2,2.8,2.8,2.8h0c1.5,0,2.8-1.2,2.8-2.8l0-3.3c0.5,0,2.4,0,2.4,0
	c0.3,0,0.1,0,2.3,0c0.5,0,1.5,0,1.8,0c0.7,0,1.4,0.1,2.1,0.1c1,0,2-0.1,3-0.1c2.8,0.1,4.8-2.2,4.1-5.1
	C67.5,23.8,66.1,22.5,64.3,22.2z"/>
</svg>
